<svg width="24" height="24" viewBox="0 0 24 24" fill="none" xmlns="http://www.w3.org/2000/svg">
<path d="M20 8.00046H8L9.212 4.97046C9.31334 4.71734 9.36186 4.44617 9.35457 4.17361C9.34728 3.90105 9.28434 3.63286 9.16962 3.38552C9.05489 3.13817 8.8908 2.9169 8.68743 2.73529C8.48406 2.55369 8.2457 2.41558 7.987 2.32946L7.647 2.21646C7.45622 2.15273 7.25064 2.14813 7.0572 2.20327C6.86376 2.25841 6.6915 2.37072 6.563 2.52546L2.231 7.72246C2.08163 7.90228 1.99991 8.1287 2 8.36246L2 19.0005C2 19.5309 2.21071 20.0396 2.58579 20.4147C2.96086 20.7897 3.46957 21.0005 4 21.0005H11.21C11.702 21.0003 12.1767 20.8187 12.5433 20.4905C12.9099 20.1623 13.1426 19.7105 13.197 19.2215L14 12.0005L20 12.0005C20.5304 12.0005 21.0391 11.7897 21.4142 11.4147C21.7893 11.0396 22 10.5309 22 10.0005C22 9.47003 21.7893 8.96132 21.4142 8.58625C21.0391 8.21117 20.5304 8.00046 20 8.00046Z" fill="#FF5C39"/>
</svg>
